<svg preserveAspectRatio="none" viewBox="0 0 61.5 61.5" fill="none" xmlns="http://www.w3.org/2000/svg">
<circle cx="30.5" cy="30.5" r="30.5" fill="#8270DF"/>
<path d="M36.6666 42V39.3333C36.6666 37.9188 36.1047 36.5623 35.1045 35.5621C34.1044 34.5619 32.7478 34 31.3333 34H20.6666C19.2522 34 17.8956 34.5619 16.8954 35.5621C15.8952 36.5623 15.3333 37.9188 15.3333 39.3333V42" stroke="white" stroke-width="2" stroke-linecap="round" stroke-linejoin="round"/>
<path d="M26 28.6667C28.9455 28.6667 31.3334 26.2789 31.3334 23.3333C31.3334 20.3878 28.9455 18 26 18C23.0545 18 20.6667 20.3878 20.6667 23.3333C20.6667 26.2789 23.0545 28.6667 26 28.6667Z" stroke="white" stroke-width="2" stroke-linecap="round" stroke-linejoin="round"/>
<path d="M44.6667 42V39.3333C44.6658 38.1516 44.2725 37.0037 43.5485 36.0698C42.8245 35.1358 41.8109 34.4688 40.6667 34.1733" stroke="white" stroke-width="2" stroke-linecap="round" stroke-linejoin="round"/>
<path d="M35.3333 18.1733C36.4805 18.4671 37.4974 19.1343 38.2235 20.0698C38.9496 21.0052 39.3438 22.1558 39.3438 23.34C39.3438 24.5242 38.9496 25.6748 38.2235 26.6103C37.4974 27.5457 36.4805 28.2129 35.3333 28.5067" stroke="white" stroke-width="2" stroke-linecap="round" stroke-linejoin="round"/>
</svg>
